<?xml version="1.0" encoding="UTF-8"?>
<!DOCTYPE svg PUBLIC "-//W3C//DTD SVG 1.1//EN" "http://www.w3.org/Graphics/SVG/1.1/DTD/svg11.dtd">
<!-- Creator: CorelDRAW -->
<svg xmlns="http://www.w3.org/2000/svg" xml:space="preserve" width="58.5066mm" height="16.7714mm" version="1.1" style="shape-rendering:geometricPrecision; text-rendering:geometricPrecision; image-rendering:optimizeQuality; fill-rule:evenodd; clip-rule:evenodd"
viewBox="0 0 5850.66 1677.14"
 xmlns:xlink="http://www.w3.org/1999/xlink"
 xmlns:xodm="http://www.corel.com/coreldraw/odm/2003">
 <defs>
  <style type="text/css">
   <![CDATA[
    .fil1 {fill:#727271}
    .fil0 {fill:#1B4E9B}
    .fil3 {fill:#727271;fill-rule:nonzero}
    .fil4 {fill:#2B2A29;fill-rule:nonzero}
    .fil5 {fill:#EA5E20;fill-rule:nonzero}
    .fil2 {fill:#1B4E9B;fill-rule:nonzero}
   ]]>
  </style>
 </defs>
 <g id="Layer_x0020_1">
  <metadata id="CorelCorpID_0Corel-Layer"/>
  <polygon class="fil0" points="479.47,0 479.47,251.46 -0,519.67 -0,268.21 "/>
  <polygon class="fil1" points="479.47,787.88 479.47,536.44 -0,268.21 -0,519.67 "/>
  <polygon class="fil1" points="479.47,1324.35 479.47,1072.89 -0,804.68 -0,1056.14 "/>
  <polygon class="fil0" points="479.47,536.44 479.47,787.88 -0,1056.11 -0,804.64 "/>
  <polygon class="fil1" points="479.47,0 479.47,251.46 958.96,519.67 958.96,268.21 "/>
  <polygon class="fil0" points="479.47,1324.35 479.47,1072.89 958.96,804.68 958.96,1056.14 "/>
  <polygon class="fil1" points="479.47,536.44 479.47,787.88 958.96,1056.11 958.96,804.64 "/>
  <g>
   <path class="fil2" d="M1242.92 214.87c0.2,34.62 5.46,65.55 15.76,92.82 10.09,27.07 23.46,51.47 40.32,73.03 16.65,21.59 35.08,41.52 55.22,59.65 19.92,18.1 40.1,35.6 60.04,52.29 20.15,16.69 38.55,33.8 55.21,51.25 16.87,17.31 30.24,36.22 40.53,56.36 10.1,20.15 15.35,42.56 15.56,67.56 0,20.37 -3.06,36.45 -9.21,48.66 -6.14,12.19 -14.68,20.94 -25.86,26.45 -11.17,5.5 -24.51,8.15 -39.86,7.93 -15.35,0.22 -28.72,-2.43 -39.89,-7.93 -11.16,-5.51 -19.73,-14.26 -25.84,-26.45 -6.13,-12.21 -9.2,-28.29 -9.2,-48.66l0 -61.03 -136.74 0 0 52.49c0,45.79 8.11,84.47 24.35,116.42 16.18,31.93 40.29,56.35 72.28,73.24 31.99,16.69 71.65,25.04 119,25.27 47.3,-0.23 86.96,-8.58 118.94,-25.27 32.01,-16.89 56.1,-41.31 72.32,-73.24 16.2,-31.95 24.31,-70.63 24.31,-116.42 -0.2,-34.77 -5.46,-65.72 -15.56,-92.77 -10.29,-27.05 -23.66,-51.49 -40.52,-73.06 -16.65,-21.54 -35.07,-41.52 -55.21,-59.62 -19.94,-18.09 -40.11,-35.63 -60.05,-52.27 -20.14,-16.73 -38.55,-33.79 -55.21,-51.29 -16.87,-17.29 -30.24,-36.23 -40.53,-56.39 -10.05,-20.14 -15.35,-42.71 -15.56,-67.55 0.21,-30.33 6.35,-51.9 18.83,-65.13 12.5,-13.01 30.24,-19.54 53.48,-19.12 23.22,-0.42 40.97,6.11 53.45,19.12 12.5,13.23 18.63,34.8 18.85,65.13l0 35.42 136.73 0 0 -26.89c0,-45.79 -8.11,-84.65 -23.88,-116.58 -16.02,-31.97 -39.91,-56.16 -71.45,-73.07 -31.53,-16.69 -70.76,-25 -117.65,-25.22 -46.87,0.22 -86.11,8.53 -117.64,25.22 -31.57,16.91 -55.46,41.1 -71.45,73.07 -15.76,31.93 -23.87,70.79 -23.87,116.58zm510.08 -205.09l0 854.65 144.6 0 0 -854.65 -144.6 0zm0 854.65l0 -854.65 0 854.65zm249.76 0l228.74 0c72.32,-0.2 126.22,-18.31 162.14,-54.31 35.71,-36.03 53.49,-88.35 53.49,-156.93l0 -432.21c0,-68.58 -17.78,-120.85 -53.49,-156.88 -35.92,-36.01 -89.82,-54.12 -162.14,-54.32l-228.74 0 0 854.65zm226.09 -732.55c15.35,-0.23 28.52,2.42 39.7,7.92 10.94,5.48 19.25,14.22 25.18,26.47 5.72,12.21 8.75,28.26 8.75,48.6l0 444.42c0,20.37 -3.03,36.46 -8.75,48.66 -5.93,12.2 -14.24,20.95 -25.18,26.45 -11.18,5.47 -24.35,8.16 -39.7,7.94l-81.49 0 0 -610.46 81.49 0zm454.88 0l249.76 0 0 -122.1 -394.36 0 0 854.65 394.36 0 0 -122.09 -249.76 0 0 -250.28 198.5 0 0 -122.1 -198.5 0 0 -238.08zm712.54 732.55l191.92 0 102.54 -854.65 -126.18 0 -74.93 678.84 -72.32 -678.84 -139.35 0 -69.67 673.96 -77.57 -673.96 -140.67 0 102.57 854.65 198.49 0 52.58 -455.41 52.59 455.41zm667.81 -854.65l-211.64 0 -147.25 854.65 132.79 0 24.98 -155.07 177.44 0 25.03 155.07 145.9 0 -147.25 -854.65zm-113.03 151.41l69.63 432.18 -139.34 0 69.71 -432.18zm398.32 703.24l144.6 0 0 -283.27 182.75 -571.38 -138.05 0 -110.41 389.46 -110.42 -389.46 -151.2 0 182.73 571.38 0 283.27zm357.58 -649.56c0.2,34.62 5.46,65.55 15.77,92.82 10.08,27.07 23.45,51.47 40.31,73.03 16.66,21.59 35.07,41.52 55.21,59.65 19.94,18.1 40.11,35.6 60.05,52.29 20.14,16.69 38.56,33.8 55.21,51.25 16.87,17.31 30.24,36.22 40.53,56.36 10.09,20.15 15.35,42.56 15.57,67.56 0,20.37 -3.07,36.45 -9.22,48.66 -6.13,12.19 -14.67,20.94 -25.85,26.45 -11.18,5.5 -24.53,8.15 -39.86,7.93 -15.35,0.22 -28.72,-2.43 -39.9,-7.93 -11.16,-5.51 -19.7,-14.26 -25.83,-26.45 -6.14,-12.21 -9.2,-28.29 -9.2,-48.66l0 -61.03 -136.75 0 0 52.49c0,45.79 8.12,84.47 24.35,116.42 16.19,31.93 40.28,56.35 72.28,73.24 31.99,16.69 71.65,25.04 119,25.27 47.3,-0.23 86.96,-8.58 118.95,-25.27 32,-16.89 56.09,-41.31 72.32,-73.24 16.19,-31.95 24.31,-70.63 24.31,-116.42 -0.22,-34.77 -5.48,-65.72 -15.57,-92.77 -10.29,-27.05 -23.62,-51.49 -40.53,-73.06 -16.64,-21.54 -35.07,-41.52 -55.21,-59.62 -19.92,-18.09 -40.1,-35.63 -60.04,-52.27 -20.15,-16.73 -38.55,-33.79 -55.21,-51.29 -16.86,-17.29 -30.24,-36.23 -40.54,-56.39 -10.04,-20.14 -15.34,-42.71 -15.54,-67.55 0.2,-30.33 6.35,-51.9 18.82,-65.13 12.5,-13.01 30.24,-19.54 53.49,-19.12 23.22,-0.42 40.96,6.11 53.44,19.12 12.49,13.23 18.64,34.8 18.84,65.13l0 35.42 136.74 0 0 -26.89c0,-45.79 -8.11,-84.65 -23.89,-116.58 -15.97,-31.97 -39.9,-56.16 -71.43,-73.07 -31.54,-16.69 -70.76,-25 -117.66,-25.22 -46.88,0.22 -86.11,8.53 -117.64,25.22 -31.57,16.91 -55.46,41.1 -71.44,73.07 -15.77,31.93 -23.88,70.79 -23.88,116.58zm704.63 444.42c0,45.79 8.55,84.47 25.4,116.42 16.91,31.93 41.42,56.35 74.08,73.24 32.65,16.69 72.75,25.04 120.05,25.27 47.35,-0.23 87.43,-8.58 120.09,-25.27 32.64,-16.89 57.19,-41.31 74.06,-73.24 16.85,-31.95 25.4,-70.63 25.4,-116.42l0 -156.27c0,-63.07 -13.38,-111.51 -40.3,-144.88 -26.74,-33.38 -66.84,-50.27 -120.08,-50.45 -32.21,0 -59.37,6.5 -81.74,19.52 -22.55,12.83 -39.86,31.53 -52.36,56.15l0 -156.28c0,-27.05 3.07,-48.21 9.42,-63.68 6.15,-15.26 15.36,-26.07 27.17,-32.35 12.07,-6.09 26.53,-9.16 43.6,-8.96 23.21,-0.42 41.42,6.11 54.79,19.12 13.16,13.23 19.94,34.8 20.14,65.13l0 30.52 136.74 0 0 -21.99c0,-45.79 -8.12,-84.65 -24.34,-116.58 -16.2,-31.97 -40.28,-56.16 -72.28,-73.07 -32.01,-16.69 -71.65,-25 -118.96,-25.22 -74.72,0.22 -130.38,19.33 -166.54,56.97 -36.38,37.85 -54.54,92.99 -54.34,165.25l0 437.07zm219.53 -229.53c23.22,-0.4 41.42,6.13 54.79,19.15 13.12,13.23 19.94,34.78 20.14,65.12l0 153.8c0,20.19 -3.06,36.45 -9.2,48.66 -6.11,12.19 -14.68,20.94 -25.83,26.45 -11.18,5.5 -24.55,8.15 -39.9,7.93 -15.33,0.22 -28.7,-2.43 -39.86,-7.93 -11.18,-5.51 -19.72,-14.26 -25.85,-26.45 -6.15,-12.21 -9.22,-28.47 -9.22,-48.66l0 -153.8c0.23,-30.34 7.02,-51.89 20.16,-65.12 13.37,-13.02 31.57,-19.55 54.77,-19.15z"/>
  </g>
  <polygon class="fil2" points="1257.14,962.05 1257.14,986.47 5832.52,986.47 5832.52,962.05 "/>
  <g>
   <path class="fil3" d="M1328.21 1218.45l19.1 0 0 45.68c0,5.86 -0.93,10.56 -2.69,14.12 -1.79,3.52 -4.26,6.06 -7.52,7.69 -3.24,1.58 -7.12,2.32 -11.56,2.3 -4.45,0.02 -8.33,-0.72 -11.58,-2.3 -3.24,-1.63 -5.7,-4.17 -7.47,-7.69 -1.8,-3.56 -2.69,-8.26 -2.69,-14.12l0 -133.87c0.08,-8.79 2.05,-15.06 5.86,-18.91 3.88,-3.77 9.13,-5.64 15.88,-5.55 6.73,-0.09 12.03,1.78 15.91,5.55 3.81,3.85 5.79,10.12 5.86,18.91l0 26.57 39.64 0 0 -24.11c0,-13.26 -2.36,-24.54 -7.05,-33.83 -4.72,-9.24 -11.71,-16.29 -21,-21.16 -9.27,-4.88 -20.77,-7.26 -34.5,-7.33 -13.72,0.07 -25.22,2.45 -34.53,7.33 -9.27,4.87 -16.27,11.92 -20.96,21.16 -4.68,9.29 -7.05,20.57 -7.05,33.83l0 128.95c0,13.27 2.37,24.47 7.05,33.76 4.69,9.27 11.69,16.36 20.96,21.24 9.31,4.87 20.81,7.26 34.53,7.33 13.73,-0.07 25.23,-2.46 34.5,-7.33 9.29,-4.88 16.28,-11.97 21,-21.24 4.69,-9.29 7.05,-20.49 7.05,-33.76l0 -78.64 -58.74 0 0 35.42zm105.66 -145.2l0 247.93 41.95 0 0 -247.93 -41.95 0zm0 247.89l0 -247.89 0 247.89zm123.59 -247.89l-42.35 0 41.17 247.89 62.56 0 41.16 -247.89 -38.48 0 -32.04 202.22 -32.02 -202.22zm183.79 35.42l72.47 0 0 -35.42 -114.42 0 0 247.89 114.42 0 0 -35.42 -72.47 0 0 -72.59 57.6 0 0 -35.43 -57.6 0 0 -69.03zm275.73 212.47l41.98 0 0 -82.15 52.98 -165.74 -40.04 0 -32.02 112.96 -32.04 -112.96 -43.84 0 52.98 165.74 0 82.15zm164.39 -190.88c0.08,-8.79 2.05,-15.06 5.86,-18.91 3.88,-3.77 9.13,-5.64 15.88,-5.55 6.73,-0.09 12.03,1.78 15.91,5.55 3.81,3.85 5.79,10.12 5.81,18.91l0 133.87c-0.02,8.8 -2,15.06 -5.81,18.91 -3.88,3.75 -9.18,5.64 -15.91,5.55 -6.75,0.09 -12,-1.8 -15.88,-5.55 -3.81,-3.85 -5.78,-10.11 -5.86,-18.91l0 -133.87zm-41.94 131.41c0,13.27 2.47,24.47 7.38,33.76 4.9,9.27 12.03,16.36 21.48,21.24 9.45,4.87 21.1,7.26 34.82,7.33 13.75,-0.07 25.36,-2.46 34.85,-7.33 9.45,-4.88 16.58,-11.97 21.45,-21.24 4.91,-9.29 7.38,-20.49 7.38,-33.76l0 -128.95c0,-13.26 -2.47,-24.54 -7.38,-33.83 -4.87,-9.24 -12,-16.29 -21.45,-21.16 -9.49,-4.88 -21.1,-7.26 -34.85,-7.33 -13.72,0.07 -25.37,2.45 -34.82,7.33 -9.45,4.87 -16.58,11.92 -21.48,21.16 -4.91,9.29 -7.38,20.57 -7.38,33.83l0 128.95zm172.41 -188.42l0 188.76c0,13.28 2.32,24.49 7.02,33.78 4.72,9.27 11.7,16.35 20.99,21.23 9.27,4.86 20.77,7.27 34.49,7.33 13.77,-0.06 25.27,-2.47 34.54,-7.33 9.28,-4.88 16.26,-11.96 20.96,-21.23 4.72,-9.29 7.06,-20.5 7.06,-33.78l0 -188.76 -39.66 0 0 191.23c0,5.91 -0.89,10.59 -2.65,14.11 -1.8,3.54 -4.29,6.08 -7.51,7.71 -3.25,1.58 -7.13,2.36 -11.58,2.29 -4.44,0.07 -8.31,-0.71 -11.57,-2.29 -3.23,-1.63 -5.7,-4.17 -7.5,-7.71 -1.77,-3.52 -2.66,-8.2 -2.66,-14.11l0 -191.23 -41.93 0zm303.95 247.89c-2.05,-4.52 -3.32,-9.2 -3.89,-13.97 -0.52,-4.79 -0.77,-10.16 -0.7,-16.11l0 -38.25c0.08,-8.65 -0.82,-16.4 -2.54,-23.39 -1.8,-6.91 -4.7,-12.88 -8.79,-17.81 -4.06,-4.97 -9.59,-8.86 -16.51,-11.58 9.35,-4.08 16.19,-10.25 20.72,-18.65 4.5,-8.34 6.73,-18.92 6.73,-31.64l0 -19.48c0.08,-12.78 -2.07,-23.39 -6.49,-31.83 -4.3,-8.43 -11.05,-14.73 -20.21,-18.94 -9.22,-4.19 -21.03,-6.24 -35.45,-6.24l-63.3 0 0 247.89 41.94 0 0 -100.93 14.5 0c6.35,-0.06 11.54,1.03 15.57,3.08 4.06,2.07 7.05,5.43 9.03,10.04 1.9,4.66 2.85,10.81 2.85,18.43l0 38.95c0,4.99 0.12,9.13 0.25,12.41 0.22,3.21 0.46,5.88 0.82,8 0.34,2.09 0.69,3.89 1.22,5.43 0.43,1.52 0.96,3.08 1.52,4.59l42.73 0zm-68.26 -212.47c7.37,-0.08 12.83,1.97 16.26,6.07 3.41,4.12 5.15,10.62 5.08,19.4l0 24.44c0,6.57 -1.02,11.75 -3.03,15.6 -2.05,3.85 -4.92,6.6 -8.65,8.25 -3.78,1.6 -8.26,2.44 -13.47,2.36l-16.42 0 0 -76.12 20.23 0zm292.48 -35.42l-63.28 0 0 247.89 65.97 0c21.06,-0.04 36.85,-5.03 47.61,-15.02 10.66,-9.98 16.05,-24.55 16.05,-43.75l0 -20.17c0.15,-13.21 -2.25,-24.28 -7.16,-33.37 -4.9,-9.05 -12.98,-15.64 -24.08,-19.77 9.27,-4.09 16.15,-10.22 20.52,-18.49 4.37,-8.24 6.6,-18.72 6.53,-31.46l0 -8.85c0.07,-12.78 -2.08,-23.39 -6.46,-31.83 -4.33,-8.43 -11.08,-14.73 -20.21,-18.94 -9.2,-4.19 -21.06,-6.24 -35.49,-6.24zm-2.65 136.35c6.35,-0.08 11.51,0.81 15.5,2.64 4.01,1.91 6.95,5.01 8.78,9.38 1.9,4.45 2.79,10.44 2.79,18.06l0 21.64c0,6.06 -0.81,10.9 -2.48,14.53 -1.65,3.6 -4.12,6.14 -7.37,7.66 -3.17,1.54 -7.2,2.29 -11.88,2.21l-24.04 0 0 -76.12 18.7 0zm1.53 -100.93c7.36,-0.08 12.84,1.97 16.25,6.07 3.47,4.12 5.16,10.62 5.08,19.4l0 13.82c0,6.57 -1.01,11.76 -3.03,15.59 -2.05,3.81 -4.91,6.6 -8.65,8.27 -3.74,1.58 -8.24,2.43 -13.46,2.36l-16.42 0 0 -65.51 20.23 0zm242.91 212.47c-2.01,-4.52 -3.28,-9.2 -3.88,-13.97 -0.49,-4.79 -0.74,-10.16 -0.67,-16.11l0 -38.25c0.07,-8.65 -0.85,-16.4 -2.54,-23.39 -1.8,-6.91 -4.72,-12.88 -8.77,-17.81 -4.06,-4.97 -9.61,-8.86 -16.51,-11.58 9.31,-4.08 16.19,-10.25 20.69,-18.65 4.52,-8.34 6.75,-18.92 6.75,-31.64l0 -19.48c0.07,-12.78 -2.09,-23.39 -6.5,-31.83 -4.3,-8.43 -11.03,-14.73 -20.21,-18.94 -9.2,-4.19 -21.03,-6.24 -35.45,-6.24l-63.32 0 0 247.89 41.97 0 0 -100.93 14.46 0c6.4,-0.06 11.57,1.03 15.6,3.08 4.05,2.07 7.06,5.43 9.03,10.04 1.91,4.66 2.86,10.81 2.86,18.43l0 38.95c0,4.99 0.1,9.13 0.25,12.41 0.18,3.21 0.42,5.88 0.8,8 0.32,2.09 0.72,3.89 1.25,5.43 0.41,1.52 0.94,3.08 1.51,4.59l42.68 0zm-68.25 -212.47c7.37,-0.08 12.83,1.97 16.29,6.07 3.43,4.12 5.15,10.62 5.08,19.4l0 24.44c0,6.57 -1.03,11.75 -3.07,15.6 -2.01,3.85 -4.86,6.6 -8.65,8.25 -3.73,1.6 -8.25,2.44 -13.46,2.36l-16.38 0 0 -76.12 20.19 0zm204.04 -35.42l-61.38 0 -42.73 247.89 38.52 0 7.24 -44.98 51.5 0 7.23 44.98 42.34 0 -42.72 -247.89zm-32.77 43.91l20.21 125.38 -40.42 0 20.21 -125.38zm204.4 203.98l43.1 0 0 -247.89 -37.39 0 0 148.37 -43.07 -148.37 -52.63 0 0 247.89 37.74 0 0 -179.55 52.25 179.55zm93.05 0l66.37 0c20.99,-0.04 36.61,-5.28 47.02,-15.72 10.38,-10.46 15.53,-25.65 15.53,-45.55l0 -125.37c0,-19.88 -5.15,-35.07 -15.53,-45.52 -10.41,-10.45 -26.03,-15.69 -47.02,-15.73l-66.37 0 0 247.89zm65.62 -212.47c4.46,-0.08 8.27,0.7 11.51,2.28 3.17,1.6 5.57,4.14 7.29,7.66 1.67,3.57 2.54,8.22 2.54,14.11l0 128.95c0,5.89 -0.87,10.55 -2.54,14.11 -1.72,3.52 -4.12,6.06 -7.29,7.66 -3.24,1.61 -7.05,2.36 -11.51,2.28l-23.67 0 0 -177.05 23.67 0zm215.87 0l43.86 0 0 212.47 41.93 0 0 -212.47 43.86 0 0 -35.42 -129.65 0 0 35.42zm209.76 106.26l47.66 0 0 106.21 42.73 0 0 -247.89 -42.73 0 0 106.26 -47.66 0 0 -106.26 -41.98 0 0 247.89 41.98 0 0 -106.21zm182.67 -106.26l72.46 0 0 -35.42 -114.41 0 0 247.89 114.41 0 0 -35.42 -72.46 0 0 -72.59 57.58 0 0 -35.43 -57.58 0 0 -69.03zm366.88 212.47c-2.03,-4.52 -3.3,-9.2 -3.88,-13.97 -0.49,-4.79 -0.76,-10.16 -0.69,-16.11l0 -38.25c0.07,-8.65 -0.82,-16.4 -2.54,-23.39 -1.8,-6.91 -4.7,-12.88 -8.76,-17.81 -4.09,-4.97 -9.62,-8.86 -16.55,-11.58 9.36,-4.08 16.2,-10.25 20.72,-18.65 4.52,-8.34 6.73,-18.92 6.73,-31.64l0 -19.48c0.07,-12.78 -2.07,-23.39 -6.48,-31.83 -4.31,-8.43 -11.05,-14.73 -20.22,-18.94 -9.21,-4.19 -21.03,-6.24 -35.46,-6.24l-63.28 0 0 247.89 41.95 0 0 -100.93 14.49 0c6.35,-0.06 11.58,1.03 15.55,3.08 4.07,2.07 7.06,5.43 9.04,10.04 1.9,4.66 2.85,10.81 2.85,18.43l0 38.95c0,4.99 0.14,9.13 0.25,12.41 0.18,3.21 0.47,5.88 0.85,8 0.29,2.09 0.67,3.89 1.2,5.43 0.42,1.52 0.96,3.08 1.51,4.59l42.72 0zm-68.25 -212.47c7.37,-0.08 12.83,1.97 16.26,6.07 3.42,4.12 5.15,10.62 5.08,19.4l0 24.44c0,6.57 -1.02,11.75 -3.04,15.6 -2.04,3.85 -4.9,6.6 -8.63,8.25 -3.79,1.6 -8.29,2.44 -13.48,2.36l-16.4 0 0 -76.12 20.21 0zm110.99 -35.42l0 247.93 41.93 0 0 -247.93 -41.93 0zm0 247.89l0 -247.89 0 247.89zm155.22 -102.69l19.05 0 0 45.68c0,5.86 -0.89,10.56 -2.65,14.12 -1.81,3.52 -4.28,6.06 -7.51,7.69 -3.25,1.58 -7.1,2.32 -11.58,2.3 -4.44,0.02 -8.32,-0.72 -11.56,-2.3 -3.26,-1.63 -5.73,-4.17 -7.49,-7.69 -1.79,-3.56 -2.67,-8.26 -2.67,-14.12l0 -133.87c0.06,-8.79 2.04,-15.06 5.85,-18.91 3.88,-3.77 9.14,-5.64 15.87,-5.55 6.74,-0.09 12.03,1.78 15.91,5.55 3.81,3.85 5.79,10.12 5.83,18.91l0 26.57 39.68 0 0 -24.11c0,-13.26 -2.36,-24.54 -7.06,-33.83 -4.68,-9.24 -11.7,-16.29 -20.99,-21.16 -9.27,-4.88 -20.78,-7.26 -34.49,-7.33 -13.73,0.07 -25.24,2.45 -34.51,7.33 -9.27,4.87 -16.29,11.92 -20.99,21.16 -4.7,9.29 -7.06,20.57 -7.06,33.83l0 128.95c0,13.27 2.36,24.47 7.06,33.76 4.7,9.27 11.72,16.36 20.99,21.24 9.27,4.87 20.78,7.26 34.51,7.33 13.71,-0.07 25.22,-2.46 34.49,-7.33 9.29,-4.88 16.31,-11.97 20.99,-21.24 4.7,-9.29 7.06,-20.49 7.06,-33.76l0 -78.64 -58.73 0 0 35.42zm147.59 -3.52l47.66 0 0 106.21 42.73 0 0 -247.89 -42.73 0 0 106.26 -47.66 0 0 -106.26 -41.94 0 0 247.89 41.94 0 0 -106.21zm128.52 -106.26l43.85 0 0 212.47 41.99 0 0 -212.47 43.85 0 0 -35.42 -129.69 0 0 35.42zm280.71 24.05c0.06,10.07 1.58,19.03 4.59,26.93 2.92,7.87 6.77,14.96 11.67,21.19 4.84,6.24 10.16,12.03 16.02,17.29 5.78,5.26 11.63,10.34 17.43,15.18 5.85,4.85 11.18,9.8 16.01,14.88 4.91,5.01 8.79,10.52 11.75,16.37 2.92,5.82 4.44,12.3 4.52,19.57 0,5.9 -0.89,10.56 -2.69,14.12 -1.77,3.52 -4.24,6.06 -7.47,7.69 -3.25,1.58 -7.13,2.32 -11.58,2.3 -4.44,0.02 -8.32,-0.72 -11.56,-2.3 -3.26,-1.63 -5.73,-4.17 -7.52,-7.69 -1.76,-3.56 -2.64,-8.22 -2.64,-14.12l0 -17.7 -39.69 0 0 15.24c0,13.27 2.36,24.47 7.09,33.76 4.68,9.27 11.67,16.36 20.94,21.24 9.29,4.87 20.79,7.26 34.52,7.33 13.72,-0.07 25.25,-2.46 34.53,-7.33 9.27,-4.88 16.27,-11.97 20.96,-21.24 4.72,-9.29 7.04,-20.49 7.04,-33.76 -0.06,-10.09 -1.57,-19.09 -4.5,-26.93 -2.98,-7.86 -6.86,-14.95 -11.76,-21.19 -4.83,-6.24 -10.16,-12.03 -16.02,-17.29 -5.77,-5.26 -11.63,-10.34 -17.42,-15.17 -5.86,-4.84 -11.19,-9.81 -16.02,-14.89 -4.9,-5.01 -8.74,-10.51 -11.75,-16.37 -2.92,-5.82 -4.43,-12.37 -4.5,-19.57 0.07,-8.79 1.83,-15.06 5.47,-18.91 3.62,-3.77 8.77,-5.64 15.52,-5.55 6.73,-0.09 11.85,1.78 15.48,5.55 3.64,3.85 5.4,10.12 5.46,18.91l0 10.26 39.66 0 0 -7.8c0,-13.26 -2.33,-24.54 -6.92,-33.83 -4.62,-9.24 -11.57,-16.29 -20.7,-21.16 -9.18,-4.88 -20.54,-7.26 -34.16,-7.33 -13.61,0.07 -24.97,2.45 -34.11,7.33 -9.16,4.87 -16.09,11.92 -20.74,21.16 -4.55,9.29 -6.91,20.57 -6.91,33.83zm167.82 -59.47l0 247.93 41.95 0 0 -247.93 -41.95 0zm0 247.89l0 -247.89 0 247.89zm92.28 0l66.35 0c20.99,-0.04 36.63,-5.28 47.04,-15.72 10.36,-10.46 15.51,-25.65 15.51,-45.55l0 -125.37c0,-19.88 -5.15,-35.07 -15.51,-45.52 -10.41,-10.45 -26.05,-15.69 -47.04,-15.73l-66.35 0 0 247.89zm65.58 -212.47c4.48,-0.08 8.29,0.7 11.54,2.28 3.18,1.6 5.57,4.14 7.3,7.66 1.65,3.57 2.54,8.22 2.54,14.11l0 128.95c0,5.89 -0.89,10.55 -2.54,14.11 -1.73,3.52 -4.12,6.06 -7.3,7.66 -3.25,1.61 -7.06,2.36 -11.54,2.28l-23.64 0 0 -177.05 23.64 0zm151.8 0l72.47 0 0 -35.42 -114.41 0 0 247.89 114.41 0 0 -35.42 -72.47 0 0 -72.59 57.62 0 0 -35.43 -57.62 0 0 -69.03z"/>
  </g>
  <path class="fil4" d="M1348.22 1526.84l-25.11 77.16 50.34 0 -25.23 -77.16zm-21.7 -36.3l43.07 0 65.37 181.3 -39.15 0 -12.32 -37.29 -70.23 0 -11.92 37.29 -39.3 0 64.48 -181.3zm303.4 -0.49l37.63 0 0 113.75c0,13.99 2.79,24.26 8.36,30.68 5.61,6.42 14.46,9.67 26.6,9.67 12.32,0 21.28,-3.17 26.89,-9.63 5.64,-6.39 8.47,-16.62 8.47,-30.72l0 -113.75 37.32 0 0 117.8c0,22.22 -6.24,39.3 -18.67,51.18 -12.45,11.9 -30.33,17.85 -53.76,17.85 -23.53,0 -41.56,-5.93 -54.04,-17.78 -12.52,-11.85 -18.8,-28.95 -18.8,-51.25l0 -117.8zm215.85 181.79l0 -181.3 39.07 0 73.58 124.58 0 -124.58 36.79 0 0 181.3 -38.52 0 -74.11 -124.57 0 124.57 -36.81 0zm222.19 0l0 -181.29 37.31 0 0 181.29 -37.31 0zm147.78 0l0 -148.9 -53.76 0 0 -32.4 144.5 0 0 32.4 -53.42 0 0 148.9 -37.32 0zm319.71 -90.48c0,19.92 4.48,35.45 13.35,46.48 8.84,11.05 21.27,16.55 37.18,16.55 16.09,0 28.61,-5.5 37.53,-16.55 8.97,-11.03 13.45,-26.56 13.45,-46.48 0,-19.94 -4.48,-35.43 -13.45,-46.5 -8.92,-11.05 -21.44,-16.55 -37.53,-16.55 -15.91,0 -28.34,5.5 -37.18,16.51 -8.87,11 -13.35,26.53 -13.35,46.54zm-38.03 0c0,-29.32 8.02,-52.54 23.97,-69.72 15.98,-17.17 37.5,-25.82 64.59,-25.82 27.05,0 48.6,8.65 64.67,25.86 16.04,17.21 24.05,40.47 24.05,69.68 0,29.21 -8.01,52.45 -24.05,69.7 -16.07,17.22 -37.62,25.82 -64.67,25.82 -27.09,0 -48.61,-8.6 -64.59,-25.82 -15.95,-17.25 -23.97,-40.49 -23.97,-69.7zm240.86 90.48l0 -181.3 126.53 0 0 31.51 -89.75 0 0 41.13 78.67 0 0 31.5 -78.67 0 0 77.16 -36.78 0zm1140.16 -145l-25.15 77.16 50.35 0 -25.2 -77.16zm-21.68 -36.3l43.07 0 65.37 181.3 -39.17 0 -12.3 -37.29 -70.25 0 -11.92 37.29 -39.3 0 64.5 -181.3zm197.76 148.57l29.91 0c17.29,0 29.88,-4.56 37.61,-13.63 7.77,-9.03 11.65,-23.78 11.65,-44.1 0,-20.25 -3.64,-35.16 -10.87,-44.65 -7.2,-9.56 -18.49,-14.3 -33.83,-14.3l-34.47 0 0 116.68zm-36.55 32.73l0 -181.3 71.02 0c27.79,0 48.53,7.53 62.19,22.51 13.66,14.99 20.5,37.78 20.5,68.33 0,16.56 -2.5,31.2 -7.56,43.83 -5.03,12.63 -12.38,22.81 -21.97,30.5 -7.24,5.75 -15.41,9.85 -24.63,12.39 -9.21,2.47 -22.04,3.74 -38.62,3.74l-60.93 0zm257.96 0l-62.52 -181.3 41.35 0 38.52 135.62 39.27 -135.62 40.84 0 -61.77 181.3 -35.69 0zm149.01 0l0 -181.3 131.68 0 0 31.51 -94.85 0 0 38.66 86.74 0 0 31.01 -86.74 0 0 46.64 99.31 0 0 33.48 -136.14 0zm235.93 -102.02l43.89 0c9.49,0 16.47,-1.94 20.95,-5.79 4.48,-3.84 6.67,-9.92 6.67,-18.23 0,-7.87 -2.15,-13.84 -6.49,-17.93 -4.34,-4.06 -10.83,-6.07 -19.41,-6.07l-45.61 0 0 48.02zm-37.29 102.02l0 -181.3 87.96 0c19.72,0 34.38,4.24 43.87,12.68 9.56,8.46 14.3,21.41 14.3,38.79 0,11.06 -2.29,20.3 -6.95,27.7 -4.63,7.37 -11.33,12.41 -20,15.13 7.86,2.8 13.47,7.03 16.82,12.81 3.32,5.75 5.23,14.72 5.72,26.84l0.78 21.39c0,0.18 0,0.42 0,0.74 0.2,10.79 2.54,17.38 6.98,19.68l0 5.54 -40.93 0c-1.27,-2.58 -2.25,-5.68 -2.96,-9.42 -0.67,-3.74 -1.12,-8.18 -1.27,-13.37l-0.5 -19.05c-0.42,-11.21 -2.54,-18.83 -6.35,-22.75 -3.81,-3.95 -10.71,-5.9 -20.62,-5.9l-39.56 0 0 70.49 -37.29 0zm251.57 0l0 -148.9 -53.77 0 0 -32.4 144.5 0 0 32.4 -53.41 0 0 148.9 -37.32 0zm147.56 0l0 -181.29 37.31 0 0 181.29 -37.31 0zm101.92 -56.02l36.81 0c1.37,9.92 5.45,17.28 12.16,22.11 6.74,4.81 16.44,7.2 29.18,7.2 10.83,0 18.97,-1.94 24.47,-5.82 5.51,-3.81 8.27,-9.52 8.27,-17.11 0,-11.01 -15.81,-20.07 -47.41,-27.29l-1.1 -0.25c-0.85,-0.18 -2.09,-0.47 -3.81,-0.89 -16.93,-3.7 -29.01,-7.8 -36.2,-12.41 -6.42,-4.1 -11.28,-9.63 -14.64,-16.58 -3.35,-6.93 -5.04,-15.08 -5.04,-24.53 0,-17.64 5.99,-31.19 17.96,-40.59 11.98,-9.36 29.3,-14.08 51.96,-14.08 21.16,0 37.71,5.01 49.64,14.99 11.96,10.05 18.23,24.13 18.9,42.36l-35.84 0c-0.64,-8.78 -4.03,-15.44 -10.06,-20.04 -6.09,-4.58 -14.78,-6.9 -25.96,-6.9 -9.81,0 -17.32,1.89 -22.62,5.75 -5.28,3.81 -7.93,9.24 -7.93,16.29 0,9.6 10.27,16.75 30.86,21.52 5.61,1.34 9.96,2.34 13.1,3.07 13.15,3.39 22.57,6.04 28.07,7.87 5.55,1.91 10.38,3.99 14.51,6.32 7.37,4.13 12.9,9.52 16.62,16.29 3.66,6.78 5.53,14.88 5.53,24.35 0,18.87 -6.35,33.47 -19.08,43.85 -12.74,10.36 -30.63,15.58 -53.76,15.58 -22.84,0 -40.75,-5.28 -53.67,-15.86 -12.97,-10.63 -19.97,-25.65 -20.92,-45.2zm211.77 56.02l0 -181.29 37.31 0 0 181.29 -37.31 0zm110.25 0l0 -181.3 39.01 0 73.64 124.58 0 -124.58 36.78 0 0 181.3 -38.52 0 -74.11 -124.57 0 124.57 -36.8 0zm351.36 -21.45c-6.73,9.13 -14.39,15.81 -22.96,20.12 -8.54,4.23 -18.63,6.37 -30.2,6.37 -25.33,0 -45.85,-8.78 -61.59,-26.38 -15.7,-17.6 -23.56,-40.75 -23.56,-69.36 0,-28.92 7.86,-52.03 23.52,-69.36 15.67,-17.29 36.55,-25.96 62.66,-25.96 22.72,0 41.24,5.44 55.64,16.33 14.32,10.88 22.88,25.82 25.57,44.85l-38.03 0c-2.3,-9.4 -6.96,-16.59 -14.08,-21.5 -7.09,-4.93 -16.36,-7.39 -27.77,-7.39 -15.17,0 -27.09,5.52 -35.76,16.68 -8.64,11.14 -12.99,26.45 -12.99,46.1 0,19.69 4.52,35.11 13.55,46.28 9.03,11.12 21.41,16.73 37.19,16.73 11.78,0 21.65,-3.5 29.66,-10.47 7.94,-6.95 12.85,-16.56 14.72,-28.68l-41.07 0 0 -31.01 75.07 0 0 98.1 -24.98 0 -4.59 -21.45z"/>
  <path class="fil2" d="M3133.87 1526.84l-25.12 77.16 50.34 0 -25.22 -77.16zm-21.69 -36.3l43.08 0 65.37 181.3 -39.17 0 -12.3 -37.29 -70.25 0 -11.92 37.29 -39.3 0 64.49 -181.3zm197.77 148.57l29.92 0c17.32,0 29.88,-4.56 37.59,-13.63 7.77,-9.03 11.65,-23.78 11.65,-44.1 0,-20.25 -3.6,-35.16 -10.83,-44.65 -7.24,-9.56 -18.49,-14.3 -33.86,-14.3l-34.47 0 0 116.68zm-36.56 32.73l0 -181.3 71.03 0c27.79,0 48.57,7.53 62.23,22.51 13.64,14.99 20.49,37.78 20.49,68.33 0,16.56 -2.54,31.2 -7.55,43.83 -5.05,12.63 -12.41,22.81 -22.01,30.5 -7.2,5.75 -15.41,9.85 -24.6,12.39 -9.2,2.47 -22.08,3.74 -38.65,3.74l-60.94 0z"/>
  <path class="fil5" d="M3517.45 1615.83c0,10.07 2.5,18.09 7.58,23.97 5.01,5.93 11.85,8.87 20.58,8.87 8.14,0 14.49,-2.83 19.07,-8.62 4.6,-5.75 6.89,-13.71 6.89,-23.98 0,-9.46 -2.41,-16.8 -7.13,-22.06 -4.77,-5.25 -11.43,-7.86 -20.08,-7.86 -8.42,0 -15.02,2.61 -19.78,7.86 -4.73,5.26 -7.13,12.53 -7.13,21.82zm-0.49 -46.05c4.01,-4.13 8.85,-7.2 14.53,-9.27 5.64,-2.12 11.96,-3.19 18.94,-3.19 17.22,0 31.05,5.26 41.42,15.77 10.4,10.52 15.55,24.49 15.55,41.98 0,18.56 -5.67,33.53 -16.96,44.96 -11.36,11.39 -26.24,17.11 -44.83,17.11 -21.39,0 -37.65,-7.41 -48.79,-22.17 -11.12,-14.77 -16.69,-36.36 -16.69,-64.87 0,-30.62 5.99,-54.01 17.89,-70.21 11.88,-16.22 29.03,-24.33 51.4,-24.33 15.62,0 28.21,4.1 37.74,12.21 9.59,8.11 14.82,19.11 15.69,32.97l-35.69 0c-0.85,-5.68 -3.03,-9.91 -6.64,-12.79 -3.63,-2.87 -8.67,-4.32 -15.13,-4.32 -8.85,0 -15.66,3.81 -20.43,11.5 -4.75,7.66 -7.4,19.23 -8,34.65z"/>
 </g>
</svg>
