<?xml version="1.0" encoding="UTF-8"?>
<!DOCTYPE svg PUBLIC "-//W3C//DTD SVG 1.1//EN" "http://www.w3.org/Graphics/SVG/1.1/DTD/svg11.dtd">
<!-- Creator: CorelDRAW -->
<svg xmlns="http://www.w3.org/2000/svg" xml:space="preserve" width="38.5316mm" height="10.3132mm" version="1.1" style="shape-rendering:geometricPrecision; text-rendering:geometricPrecision; image-rendering:optimizeQuality; fill-rule:evenodd; clip-rule:evenodd"
viewBox="0 0 991.15 265.29"
 xmlns:xlink="http://www.w3.org/1999/xlink"
 xmlns:xodm="http://www.corel.com/coreldraw/odm/2003">
 <defs>
  <style type="text/css">
   <![CDATA[
    .fil1 {fill:#727271}
    .fil0 {fill:#1B4E9B}
    .fil6 {fill:#FEFEFE;fill-rule:nonzero}
    .fil3 {fill:#898989;fill-rule:nonzero}
    .fil5 {fill:#434242;fill-rule:nonzero}
    .fil4 {fill:#EA5E20;fill-rule:nonzero}
    .fil2 {fill:#1B4E9B;fill-rule:nonzero}
   ]]>
  </style>
 </defs>
 <g id="Layer_x0020_1">
  <metadata id="CorelCorpID_0Corel-Layer"/>
  <g id="_2418531434256">
   <polygon class="fil0" points="96.04,0 96.04,50.37 -0,104.1 -0,53.73 "/>
   <polygon class="fil1" points="96.04,157.82 96.04,107.46 -0,53.73 -0,104.1 "/>
   <polygon class="fil1" points="96.04,265.29 96.04,214.91 -0,161.19 -0,211.56 "/>
   <polygon class="fil0" points="96.04,107.46 96.04,157.82 -0,211.55 -0,161.18 "/>
   <polygon class="fil1" points="96.04,0 96.04,50.37 192.09,104.1 192.09,53.73 "/>
   <polygon class="fil0" points="96.04,265.29 96.04,214.91 192.09,161.19 192.09,211.56 "/>
   <polygon class="fil1" points="96.04,107.46 96.04,157.82 192.09,211.55 192.09,161.18 "/>
   <g>
    <path class="fil2" d="M236.77 35.18c0.03,5.67 0.89,10.73 2.58,15.19 1.66,4.43 3.84,8.43 6.6,11.96 2.73,3.54 5.74,6.8 9.04,9.76 3.26,2.97 6.56,5.83 9.83,8.56 3.3,2.73 6.31,5.53 9.04,8.39 2.76,2.83 4.95,5.93 6.64,9.22 1.65,3.3 2.51,6.97 2.55,11.06 0,3.34 -0.5,5.97 -1.51,7.97 -1.01,2 -2.41,3.43 -4.23,4.33 -1.83,0.9 -4.01,1.34 -6.53,1.3 -2.51,0.04 -4.7,-0.4 -6.53,-1.3 -1.83,-0.9 -3.23,-2.33 -4.23,-4.33 -1,-2 -1.5,-4.63 -1.5,-7.97l0 -9.99 -22.39 0 0 8.6c0,7.49 1.33,13.83 3.99,19.06 2.65,5.23 6.6,9.22 11.83,11.99 5.24,2.73 11.73,4.1 19.48,4.14 7.74,-0.04 14.24,-1.4 19.47,-4.14 5.24,-2.77 9.18,-6.76 11.84,-11.99 2.65,-5.23 3.98,-11.57 3.98,-19.06 -0.03,-5.7 -0.89,-10.76 -2.54,-15.19 -1.68,-4.43 -3.88,-8.43 -6.64,-11.96 -2.72,-3.53 -5.74,-6.8 -9.04,-9.76 -3.26,-2.96 -6.57,-5.83 -9.83,-8.56 -3.3,-2.74 -6.31,-5.53 -9.04,-8.39 -2.76,-2.83 -4.95,-5.93 -6.63,-9.23 -1.65,-3.3 -2.52,-6.99 -2.55,-11.06 0.03,-4.97 1.04,-8.5 3.08,-10.66 2.04,-2.13 4.95,-3.2 8.75,-3.13 3.8,-0.07 6.71,1 8.75,3.13 2.04,2.16 3.05,5.7 3.09,10.66l0 5.8 22.38 0 0 -4.4c0,-7.5 -1.33,-13.86 -3.91,-19.08 -2.62,-5.23 -6.53,-9.19 -11.69,-11.96 -5.16,-2.73 -11.59,-4.09 -19.26,-4.13 -7.68,0.04 -14.1,1.4 -19.26,4.13 -5.17,2.77 -9.08,6.73 -11.69,11.96 -2.58,5.23 -3.91,11.59 -3.91,19.08zm83.5 -33.57l0 139.91 23.67 0 0 -139.91 -23.67 0zm0 139.91l0 -139.91 0 139.91zm40.88 0l37.45 0c11.84,-0.03 20.66,-3 26.54,-8.89 5.85,-5.9 8.76,-14.46 8.76,-25.69l0 -70.76c0,-11.23 -2.91,-19.78 -8.76,-25.68 -5.88,-5.9 -14.7,-8.86 -26.54,-8.89l-37.45 0 0 139.91zm37.01 -119.92c2.51,-0.04 4.67,0.39 6.5,1.3 1.79,0.9 3.15,2.33 4.12,4.33 0.94,2 1.44,4.62 1.44,7.95l0 72.75c0,3.33 -0.5,5.97 -1.44,7.96 -0.97,2 -2.33,3.43 -4.12,4.33 -1.83,0.9 -3.98,1.34 -6.5,1.3l-13.34 0 0 -99.93 13.34 0zm74.46 0l40.89 0 0 -19.99 -64.56 0 0 139.91 64.56 0 0 -19.99 -40.89 0 0 -40.97 32.49 0 0 -19.99 -32.49 0 0 -38.97zm116.65 119.92l31.42 0 16.79 -139.91 -20.66 0 -12.27 111.12 -11.84 -111.12 -22.81 0 -11.4 110.33 -12.7 -110.33 -23.03 0 16.79 139.91 32.5 0 8.6 -74.55 8.61 74.55zm109.32 -139.91l-34.65 0 -24.11 139.91 21.74 0 4.09 -25.39 29.05 0 4.1 25.39 23.88 0 -24.11 -139.91zm-18.5 24.78l11.4 70.75 -22.81 0 11.42 -70.75zm65.2 115.12l23.67 0 0 -46.37 29.92 -93.53 -22.6 0 -18.08 63.75 -18.08 -63.75 -24.75 0 29.91 93.53 0 46.37zm58.54 -106.34c0.03,5.67 0.89,10.73 2.58,15.19 1.65,4.43 3.84,8.43 6.6,11.96 2.72,3.54 5.74,6.8 9.03,9.76 3.27,2.97 6.57,5.83 9.83,8.56 3.3,2.73 6.31,5.53 9.04,8.39 2.76,2.83 4.95,5.93 6.63,9.22 1.65,3.3 2.52,6.97 2.55,11.06 0,3.34 -0.51,5.97 -1.51,7.97 -1.01,2 -2.4,3.43 -4.23,4.33 -1.83,0.9 -4.02,1.34 -6.52,1.3 -2.51,0.04 -4.7,-0.4 -6.53,-1.3 -1.83,-0.9 -3.23,-2.33 -4.23,-4.33 -1.01,-2 -1.51,-4.63 -1.51,-7.97l0 -9.99 -22.38 0 0 8.6c0,7.49 1.33,13.83 3.98,19.06 2.65,5.23 6.59,9.22 11.83,11.99 5.24,2.73 11.73,4.1 19.48,4.14 7.74,-0.04 14.24,-1.4 19.47,-4.14 5.24,-2.77 9.18,-6.76 11.84,-11.99 2.65,-5.23 3.98,-11.57 3.98,-19.06 -0.04,-5.7 -0.9,-10.76 -2.55,-15.19 -1.68,-4.43 -3.87,-8.43 -6.63,-11.96 -2.73,-3.53 -5.74,-6.8 -9.04,-9.76 -3.26,-2.96 -6.56,-5.83 -9.82,-8.56 -3.3,-2.74 -6.31,-5.53 -9.04,-8.39 -2.76,-2.83 -4.95,-5.93 -6.64,-9.23 -1.64,-3.3 -2.51,-6.99 -2.54,-11.06 0.04,-4.97 1.04,-8.5 3.08,-10.66 2.05,-2.13 4.95,-3.2 8.76,-3.13 3.8,-0.07 6.7,1 8.75,3.13 2.04,2.16 3.05,5.7 3.08,10.66l0 5.8 22.39 0 0 -4.4c0,-7.5 -1.33,-13.86 -3.91,-19.08 -2.62,-5.23 -6.53,-9.19 -11.69,-11.96 -5.17,-2.73 -11.59,-4.09 -19.26,-4.13 -7.67,0.04 -14.1,1.4 -19.26,4.13 -5.17,2.77 -9.08,6.73 -11.7,11.96 -2.58,5.23 -3.91,11.59 -3.91,19.08zm115.35 72.75c0,7.49 1.4,13.83 4.16,19.06 2.77,5.23 6.78,9.22 12.13,11.99 5.34,2.73 11.91,4.1 19.65,4.14 7.75,-0.04 14.31,-1.4 19.66,-4.14 5.35,-2.77 9.37,-6.76 12.13,-11.99 2.75,-5.23 4.16,-11.57 4.16,-19.06l0 -25.58c0,-10.33 -2.19,-18.26 -6.6,-23.72 -4.38,-5.47 -10.94,-8.23 -19.66,-8.26 -5.27,0 -9.72,1.06 -13.38,3.2 -3.69,2.1 -6.52,5.16 -8.57,9.19l0 -25.58c0,-4.43 0.5,-7.89 1.54,-10.43 1.01,-2.5 2.51,-4.26 4.45,-5.29 1.98,-1 4.34,-1.5 7.14,-1.47 3.8,-0.07 6.78,1 8.97,3.13 2.15,2.16 3.26,5.7 3.3,10.66l0 4.99 22.39 0 0 -3.6c0,-7.5 -1.33,-13.86 -3.98,-19.08 -2.65,-5.23 -6.6,-9.19 -11.84,-11.96 -5.24,-2.73 -11.73,-4.09 -19.47,-4.13 -12.23,0.04 -21.34,3.17 -27.26,9.33 -5.95,6.2 -8.93,15.23 -8.9,27.05l0 71.55zm35.94 -37.58c3.8,-0.07 6.78,1 8.97,3.14 2.15,2.17 3.27,5.69 3.3,10.66l0 25.18c0,3.31 -0.5,5.97 -1.51,7.97 -1,2 -2.4,3.43 -4.23,4.33 -1.83,0.9 -4.02,1.34 -6.53,1.3 -2.51,0.04 -4.7,-0.4 -6.52,-1.3 -1.83,-0.9 -3.23,-2.33 -4.23,-4.33 -1.01,-2 -1.51,-4.66 -1.51,-7.97l0 -25.18c0.04,-4.96 1.15,-8.49 3.3,-10.66 2.19,-2.13 5.17,-3.2 8.97,-3.14z"/>
   </g>
   <polygon class="fil2" points="239.1,157.49 239.1,161.49 988.1,161.49 988.1,157.49 "/>
   <path class="fil3" d="M254.01 182.93l-4.11 12.63 8.24 0 -4.13 -12.63zm-3.55 -5.94l7.05 0 10.7 29.68 -6.41 0 -2.01 -6.11 -11.5 0 -1.95 6.11 -6.43 0 10.55 -29.68zm49.67 -0.08l6.16 0 0 18.62c0,2.29 0.46,3.97 1.37,5.02 0.92,1.05 2.37,1.58 4.36,1.58 2.01,0 3.48,-0.52 4.4,-1.58 0.92,-1.05 1.39,-2.72 1.39,-5.03l0 -18.62 6.11 0 0 19.28c0,3.64 -1.02,6.44 -3.06,8.38 -2.04,1.95 -4.96,2.92 -8.8,2.92 -3.85,0 -6.8,-0.97 -8.85,-2.91 -2.05,-1.94 -3.08,-4.74 -3.08,-8.39l0 -19.28zm35.34 29.76l0 -29.68 6.39 0 12.05 20.39 0 -20.39 6.02 0 0 29.68 -6.3 0 -12.13 -20.39 0 20.39 -6.02 0zm36.37 0l0 -29.68 6.11 0 0 29.68 -6.11 0zm24.19 0l0 -24.38 -8.8 0 0 -5.3 23.65 0 0 5.3 -8.74 0 0 24.38 -6.11 0zm52.34 -14.81c0,3.26 0.73,5.8 2.18,7.61 1.45,1.81 3.48,2.71 6.09,2.71 2.63,0 4.68,-0.9 6.14,-2.71 1.47,-1.81 2.2,-4.35 2.2,-7.61 0,-3.27 -0.74,-5.8 -2.2,-7.61 -1.46,-1.81 -3.51,-2.71 -6.14,-2.71 -2.61,0 -4.64,0.9 -6.09,2.7 -1.45,1.8 -2.18,4.34 -2.18,7.62zm-6.22 0c0,-4.8 1.31,-8.6 3.92,-11.42 2.61,-2.81 6.14,-4.23 10.57,-4.23 4.42,0 7.95,1.41 10.59,4.23 2.63,2.82 3.94,6.63 3.94,11.41 0,4.78 -1.31,8.58 -3.94,11.41 -2.63,2.82 -6.16,4.23 -10.59,4.23 -4.43,0 -7.96,-1.41 -10.57,-4.23 -2.61,-2.82 -3.92,-6.63 -3.92,-11.41zm39.43 14.81l0 -29.68 20.72 0 0 5.16 -14.7 0 0 6.73 12.88 0 0 5.16 -12.88 0 0 12.64 -6.02 0zm186.65 -23.74l-4.12 12.63 8.24 0 -4.13 -12.63zm-3.55 -5.94l7.05 0 10.7 29.68 -6.41 0 -2.01 -6.11 -11.5 0 -1.95 6.11 -6.44 0 10.56 -29.68zm32.37 24.32l4.9 0c2.83,0 4.89,-0.75 6.16,-2.23 1.27,-1.48 1.91,-3.89 1.91,-7.22 0,-3.32 -0.59,-5.76 -1.78,-7.31 -1.18,-1.57 -3.03,-2.34 -5.54,-2.34l-5.64 0 0 19.1zm-5.99 5.36l0 -29.68 11.63 0c4.55,0 7.94,1.23 10.18,3.68 2.24,2.46 3.35,6.19 3.35,11.19 0,2.71 -0.41,5.11 -1.24,7.17 -0.82,2.07 -2.03,3.73 -3.6,4.99 -1.19,0.94 -2.52,1.62 -4.03,2.03 -1.51,0.4 -3.61,0.61 -6.32,0.61l-9.98 0zm42.23 0l-10.24 -29.68 6.77 0 6.31 22.2 6.43 -22.2 6.69 0 -10.11 29.68 -5.84 0zm24.4 0l0 -29.68 21.56 0 0 5.16 -15.53 0 0 6.33 14.2 0 0 5.08 -14.2 0 0 7.63 16.26 0 0 5.48 -22.29 0zm38.62 -16.7l7.18 0c1.55,0 2.69,-0.32 3.43,-0.95 0.73,-0.63 1.09,-1.62 1.09,-2.98 0,-1.29 -0.35,-2.26 -1.06,-2.93 -0.71,-0.66 -1.77,-0.99 -3.18,-0.99l-7.46 0 0 7.86zm-6.11 16.7l0 -29.68 14.4 0c3.23,0 5.63,0.69 7.18,2.08 1.57,1.38 2.34,3.5 2.34,6.35 0,1.81 -0.38,3.32 -1.14,4.53 -0.76,1.21 -1.86,2.03 -3.27,2.48 1.29,0.46 2.2,1.15 2.75,2.09 0.55,0.94 0.86,2.41 0.94,4.4l0.13 3.5c0,0.03 0,0.07 0,0.12 0.03,1.76 0.41,2.84 1.14,3.22l0 0.91 -6.7 0c-0.21,-0.42 -0.37,-0.93 -0.49,-1.54 -0.11,-0.61 -0.18,-1.34 -0.21,-2.19l-0.08 -3.12c-0.07,-1.83 -0.42,-3.08 -1.04,-3.72 -0.62,-0.65 -1.75,-0.97 -3.37,-0.97l-6.47 0 0 11.54 -6.11 0zm41.18 0l0 -24.38 -8.8 0 0 -5.3 23.65 0 0 5.3 -8.74 0 0 24.38 -6.11 0zm24.16 0l0 -29.68 6.11 0 0 29.68 -6.11 0zm16.68 -9.17l6.02 0c0.23,1.62 0.89,2.83 1.99,3.62 1.1,0.79 2.69,1.18 4.77,1.18 1.78,0 3.11,-0.32 4.01,-0.95 0.9,-0.62 1.36,-1.56 1.36,-2.8 0,-1.8 -2.59,-3.29 -7.76,-4.47l-0.18 -0.04c-0.14,-0.03 -0.34,-0.08 -0.63,-0.15 -2.77,-0.6 -4.75,-1.27 -5.93,-2.03 -1.05,-0.67 -1.85,-1.58 -2.39,-2.72 -0.55,-1.13 -0.83,-2.47 -0.83,-4.02 0,-2.89 0.98,-5.11 2.94,-6.65 1.96,-1.53 4.8,-2.3 8.51,-2.3 3.46,0 6.18,0.82 8.13,2.45 1.96,1.65 2.98,3.95 3.09,6.93l-5.87 0c-0.11,-1.44 -0.66,-2.52 -1.65,-3.28 -1,-0.75 -2.42,-1.13 -4.25,-1.13 -1.61,0 -2.83,0.31 -3.7,0.94 -0.86,0.62 -1.3,1.51 -1.3,2.67 0,1.57 1.68,2.74 5.05,3.52 0.92,0.22 1.63,0.38 2.15,0.5 2.15,0.56 3.69,0.99 4.59,1.29 0.91,0.31 1.7,0.65 2.38,1.03 1.21,0.68 2.11,1.56 2.72,2.67 0.6,1.11 0.91,2.44 0.91,3.99 0,3.09 -1.04,5.48 -3.12,7.18 -2.09,1.7 -5.01,2.55 -8.8,2.55 -3.74,0 -6.67,-0.87 -8.79,-2.6 -2.12,-1.74 -3.27,-4.2 -3.42,-7.4zm34.66 9.17l0 -29.68 6.11 0 0 29.68 -6.11 0zm18.05 0l0 -29.68 6.38 0 12.06 20.39 0 -20.39 6.02 0 0 29.68 -6.31 0 -12.13 -20.39 0 20.39 -6.02 0zm57.52 -3.51c-1.1,1.5 -2.36,2.59 -3.76,3.3 -1.4,0.69 -3.05,1.04 -4.94,1.04 -4.15,0 -7.51,-1.44 -10.08,-4.32 -2.57,-2.88 -3.86,-6.67 -3.86,-11.36 0,-4.73 1.29,-8.52 3.85,-11.35 2.56,-2.83 5.98,-4.25 10.26,-4.25 3.72,0 6.75,0.89 9.11,2.67 2.35,1.79 3.75,4.23 4.19,7.34l-6.23 0c-0.38,-1.54 -1.14,-2.71 -2.3,-3.52 -1.16,-0.81 -2.68,-1.21 -4.55,-1.21 -2.48,0 -4.43,0.9 -5.85,2.73 -1.41,1.82 -2.13,4.33 -2.13,7.55 0,3.22 0.74,5.75 2.22,7.58 1.48,1.82 3.51,2.74 6.09,2.74 1.93,0 3.54,-0.58 4.85,-1.72 1.3,-1.14 2.1,-2.71 2.41,-4.7l-6.72 0 0 -5.08 12.29 0 0 16.06 -4.09 0 -0.75 -3.51z"/>
   <path class="fil2" d="M546.33 182.93l-4.11 12.63 8.24 0 -4.13 -12.63zm-3.55 -5.94l7.05 0 10.7 29.68 -6.41 0 -2.01 -6.11 -11.5 0 -1.95 6.11 -6.43 0 10.56 -29.68zm32.37 24.32l4.9 0c2.84,0 4.89,-0.75 6.16,-2.23 1.27,-1.48 1.91,-3.89 1.91,-7.22 0,-3.32 -0.59,-5.76 -1.77,-7.31 -1.18,-1.57 -3.03,-2.34 -5.54,-2.34l-5.64 0 0 19.1zm-5.98 5.36l0 -29.68 11.63 0c4.55,0 7.95,1.23 10.18,3.68 2.24,2.46 3.36,6.19 3.36,11.19 0,2.71 -0.42,5.11 -1.23,7.17 -0.83,2.07 -2.03,3.73 -3.6,4.99 -1.18,0.94 -2.52,1.62 -4.03,2.03 -1.5,0.4 -3.61,0.61 -6.33,0.61l-9.97 0z"/>
   <path class="fil4" d="M609.12 197.5c0,1.65 0.41,2.96 1.24,3.93 0.82,0.97 1.94,1.45 3.37,1.45 1.33,0 2.37,-0.46 3.12,-1.41 0.76,-0.94 1.13,-2.24 1.13,-3.92 0,-1.55 -0.4,-2.75 -1.17,-3.61 -0.78,-0.86 -1.87,-1.29 -3.29,-1.29 -1.38,0 -2.46,0.43 -3.24,1.29 -0.77,0.86 -1.17,2.05 -1.17,3.57zm-0.08 -7.54c0.66,-0.67 1.45,-1.18 2.38,-1.52 0.92,-0.35 1.95,-0.52 3.1,-0.52 2.82,0 5.08,0.86 6.78,2.58 1.7,1.72 2.55,4.01 2.55,6.87 0,3.04 -0.93,5.49 -2.78,7.36 -1.86,1.86 -4.29,2.8 -7.34,2.8 -3.5,0 -6.16,-1.21 -7.99,-3.63 -1.82,-2.42 -2.73,-5.95 -2.73,-10.62 0,-5.01 0.98,-8.84 2.93,-11.49 1.94,-2.65 4.75,-3.98 8.42,-3.98 2.55,0 4.61,0.67 6.18,2 1.57,1.32 2.42,3.13 2.56,5.4l-5.84 0c-0.14,-0.93 -0.5,-1.63 -1.09,-2.1 -0.59,-0.47 -1.42,-0.71 -2.47,-0.71 -1.45,0 -2.56,0.62 -3.34,1.88 -0.78,1.26 -1.21,3.15 -1.31,5.67z"/>
   <polygon class="fil5" points="236.05,221.67 991.15,221.67 991.15,265.19 236.05,265.19 "/>
   <path class="fil6" d="M386.77 255.41l0 -23.96 5.55 0 0 23.96 -5.55 0zm19.75 0.41c-1.91,0 -3.76,-0.26 -5.51,-0.77 -1.76,-0.51 -3.17,-1.18 -4.25,-2l1.88 -4.18c1.03,0.73 2.24,1.33 3.64,1.8 1.4,0.47 2.83,0.7 4.26,0.7 1.1,0 1.98,-0.11 2.65,-0.32 0.67,-0.22 1.17,-0.52 1.49,-0.91 0.32,-0.39 0.48,-0.83 0.48,-1.34 0,-0.64 -0.25,-1.15 -0.75,-1.52 -0.5,-0.38 -1.17,-0.69 -1.99,-0.93 -0.82,-0.24 -1.73,-0.47 -2.72,-0.68 -0.99,-0.22 -1.99,-0.49 -2.98,-0.8 -1,-0.32 -1.9,-0.73 -2.72,-1.23 -0.82,-0.51 -1.49,-1.17 -2,-1.99 -0.51,-0.82 -0.77,-1.87 -0.77,-3.15 0,-1.37 0.37,-2.62 1.11,-3.75 0.74,-1.13 1.86,-2.03 3.35,-2.7 1.5,-0.67 3.37,-1.01 5.63,-1.01 1.51,0 2.99,0.18 4.45,0.53 1.46,0.35 2.75,0.88 3.87,1.59l-1.71 4.21c-1.12,-0.64 -2.24,-1.11 -3.36,-1.42 -1.12,-0.31 -2.21,-0.46 -3.28,-0.46 -1.08,0 -1.95,0.13 -2.64,0.38 -0.68,0.25 -1.18,0.58 -1.47,0.97 -0.3,0.4 -0.45,0.86 -0.45,1.39 0,0.62 0.25,1.11 0.75,1.49 0.5,0.38 1.16,0.68 1.98,0.91 0.82,0.23 1.73,0.46 2.72,0.69 0.99,0.23 1.99,0.49 2.98,0.79 1,0.3 1.9,0.7 2.72,1.2 0.82,0.51 1.49,1.17 2,1.99 0.51,0.82 0.77,1.86 0.77,3.12 0,1.35 -0.38,2.58 -1.13,3.69 -0.75,1.12 -1.88,2.02 -3.37,2.7 -1.49,0.69 -3.39,1.03 -5.67,1.03zm26.26 0c-1.9,0 -3.64,-0.31 -5.26,-0.92 -1.61,-0.62 -3,-1.48 -4.18,-2.6 -1.17,-1.12 -2.09,-2.43 -2.74,-3.94 -0.65,-1.51 -0.98,-3.15 -0.98,-4.93 0,-1.78 0.33,-3.42 0.98,-4.93 0.65,-1.5 1.57,-2.82 2.76,-3.94 1.19,-1.12 2.58,-1.99 4.17,-2.6 1.6,-0.62 3.33,-0.93 5.21,-0.93 1.89,0 3.63,0.31 5.22,0.93 1.59,0.61 2.97,1.48 4.14,2.6 1.18,1.12 2.1,2.43 2.76,3.92 0.66,1.49 0.99,3.14 0.99,4.94 0,1.78 -0.33,3.43 -0.99,4.95 -0.66,1.52 -1.58,2.83 -2.76,3.94 -1.18,1.11 -2.55,1.97 -4.14,2.59 -1.58,0.61 -3.31,0.92 -5.19,0.92zm-0.03 -4.72c1.07,0 2.06,-0.18 2.96,-0.55 0.9,-0.36 1.7,-0.89 2.38,-1.57 0.68,-0.69 1.21,-1.5 1.59,-2.43 0.37,-0.93 0.56,-1.98 0.56,-3.12 0,-1.14 -0.19,-2.18 -0.56,-3.11 -0.38,-0.94 -0.91,-1.75 -1.58,-2.43 -0.67,-0.68 -1.46,-1.21 -2.38,-1.57 -0.91,-0.37 -1.91,-0.55 -2.98,-0.55 -1.07,0 -2.06,0.18 -2.96,0.55 -0.9,0.36 -1.7,0.89 -2.38,1.57 -0.69,0.68 -1.22,1.49 -1.59,2.43 -0.38,0.93 -0.56,1.97 -0.56,3.11 0,1.12 0.19,2.15 0.56,3.1 0.38,0.95 0.9,1.76 1.57,2.45 0.67,0.68 1.47,1.21 2.38,1.57 0.91,0.37 1.91,0.55 2.98,0.55zm34.54 -20.06c2.21,0 4.12,0.46 5.72,1.37 1.6,0.91 2.83,2.24 3.7,3.99 0.87,1.75 1.3,3.92 1.3,6.52 0,2.76 -0.52,5.1 -1.56,7.01 -1.03,1.92 -2.47,3.38 -4.3,4.39 -1.82,1 -3.95,1.5 -6.37,1.5 -1.26,0 -2.46,-0.14 -3.63,-0.41 -1.16,-0.27 -2.17,-0.69 -3.01,-1.23l2.05 -4.07c0.66,0.46 1.37,0.77 2.12,0.94 0.75,0.17 1.54,0.26 2.36,0.26 2.05,0 3.69,-0.63 4.91,-1.88 1.22,-1.26 1.83,-3.11 1.83,-5.58 0,-0.41 -0.01,-0.87 -0.03,-1.37 -0.02,-0.5 -0.08,-1 -0.17,-1.5l1.51 1.44c-0.39,0.88 -0.94,1.64 -1.64,2.24 -0.71,0.6 -1.53,1.06 -2.46,1.37 -0.94,0.31 -1.99,0.46 -3.15,0.46 -1.53,0 -2.92,-0.31 -4.16,-0.92 -1.24,-0.62 -2.24,-1.48 -2.98,-2.6 -0.74,-1.12 -1.11,-2.43 -1.11,-3.94 0,-1.65 0.4,-3.06 1.21,-4.25 0.81,-1.19 1.91,-2.1 3.28,-2.75 1.38,-0.65 2.9,-0.98 4.57,-0.98zm0.34 4.14c-0.8,0 -1.49,0.14 -2.09,0.43 -0.59,0.29 -1.06,0.7 -1.4,1.23 -0.34,0.54 -0.51,1.17 -0.51,1.9 0,1.1 0.37,1.97 1.11,2.62 0.74,0.65 1.73,0.97 2.96,0.97 0.8,0 1.51,-0.16 2.14,-0.46 0.63,-0.31 1.11,-0.74 1.46,-1.29 0.34,-0.55 0.51,-1.16 0.51,-1.85 0,-0.68 -0.17,-1.29 -0.5,-1.83 -0.33,-0.54 -0.81,-0.96 -1.43,-1.27 -0.61,-0.31 -1.37,-0.46 -2.26,-0.46zm23.96 20.64c-1.96,0 -3.72,-0.48 -5.27,-1.46 -1.55,-0.97 -2.77,-2.38 -3.66,-4.23 -0.89,-1.85 -1.33,-4.08 -1.33,-6.71 0,-2.62 0.44,-4.86 1.33,-6.71 0.89,-1.84 2.11,-3.26 3.66,-4.23 1.55,-0.97 3.31,-1.46 5.27,-1.46 1.99,0 3.75,0.49 5.29,1.46 1.54,0.97 2.75,2.38 3.64,4.23 0.89,1.85 1.33,4.09 1.33,6.71 0,2.62 -0.44,4.86 -1.33,6.71 -0.89,1.85 -2.11,3.26 -3.64,4.23 -1.54,0.97 -3.31,1.46 -5.29,1.46zm0 -4.69c0.94,0 1.75,-0.26 2.45,-0.79 0.7,-0.52 1.24,-1.36 1.64,-2.5 0.4,-1.14 0.6,-2.61 0.6,-4.41 0,-1.8 -0.2,-3.27 -0.6,-4.41 -0.4,-1.14 -0.95,-1.97 -1.64,-2.5 -0.69,-0.52 -1.51,-0.79 -2.45,-0.79 -0.91,0 -1.72,0.26 -2.41,0.79 -0.69,0.53 -1.24,1.36 -1.64,2.5 -0.4,1.14 -0.6,2.61 -0.6,4.41 0,1.8 0.2,3.27 0.6,4.41 0.4,1.14 0.95,1.98 1.64,2.5 0.7,0.52 1.5,0.79 2.41,0.79zm23.9 4.69c-1.96,0 -3.72,-0.48 -5.27,-1.46 -1.55,-0.97 -2.77,-2.38 -3.66,-4.23 -0.89,-1.85 -1.34,-4.08 -1.34,-6.71 0,-2.62 0.44,-4.86 1.34,-6.71 0.89,-1.84 2.11,-3.26 3.66,-4.23 1.55,-0.97 3.31,-1.46 5.27,-1.46 1.99,0 3.75,0.49 5.29,1.46 1.54,0.97 2.76,2.38 3.64,4.23 0.89,1.85 1.34,4.09 1.34,6.71 0,2.62 -0.45,4.86 -1.34,6.71 -0.89,1.85 -2.1,3.26 -3.64,4.23 -1.54,0.97 -3.3,1.46 -5.29,1.46zm0 -4.69c0.94,0 1.75,-0.26 2.45,-0.79 0.7,-0.52 1.24,-1.36 1.64,-2.5 0.4,-1.14 0.6,-2.61 0.6,-4.41 0,-1.8 -0.2,-3.27 -0.6,-4.41 -0.4,-1.14 -0.94,-1.97 -1.64,-2.5 -0.69,-0.52 -1.51,-0.79 -2.45,-0.79 -0.91,0 -1.72,0.26 -2.41,0.79 -0.7,0.53 -1.24,1.36 -1.65,2.5 -0.4,1.14 -0.6,2.61 -0.6,4.41 0,1.8 0.2,3.27 0.6,4.41 0.4,1.14 0.95,1.98 1.65,2.5 0.69,0.52 1.5,0.79 2.41,0.79zm17.19 4.28l0 -21.91 2.4 2.39 -7.19 0 0 -4.45 10.34 0 0 23.96 -5.55 0zm16.6 -12.02c-0.91,0 -1.69,-0.32 -2.34,-0.94 -0.65,-0.63 -0.98,-1.43 -0.98,-2.42 0,-0.98 0.33,-1.77 0.98,-2.38 0.65,-0.6 1.43,-0.91 2.34,-0.91 0.94,0 1.73,0.3 2.36,0.91 0.64,0.6 0.96,1.4 0.96,2.38 0,0.98 -0.32,1.79 -0.96,2.42 -0.64,0.63 -1.43,0.94 -2.36,0.94zm0 12.29c-0.91,0 -1.69,-0.31 -2.34,-0.94 -0.65,-0.63 -0.98,-1.43 -0.98,-2.41 0,-0.98 0.33,-1.77 0.98,-2.38 0.65,-0.6 1.43,-0.91 2.34,-0.91 0.94,0 1.73,0.3 2.36,0.91 0.64,0.6 0.96,1.4 0.96,2.38 0,0.98 -0.32,1.79 -0.96,2.41 -0.64,0.63 -1.43,0.94 -2.36,0.94zm9.35 -0.28l0 -3.59 9.24 -8.73c0.73,-0.66 1.26,-1.26 1.61,-1.78 0.34,-0.52 0.58,-1 0.7,-1.44 0.12,-0.43 0.19,-0.83 0.19,-1.2 0,-0.96 -0.32,-1.7 -0.97,-2.21 -0.65,-0.51 -1.6,-0.77 -2.86,-0.77 -1.01,0 -1.93,0.19 -2.79,0.58 -0.86,0.39 -1.58,0.99 -2.18,1.81l-4.04 -2.6c0.91,-1.37 2.19,-2.45 3.84,-3.25 1.64,-0.8 3.53,-1.2 5.68,-1.2 1.78,0 3.34,0.29 4.67,0.87 1.34,0.58 2.37,1.4 3.12,2.45 0.74,1.05 1.11,2.3 1.11,3.77 0,0.78 -0.1,1.54 -0.29,2.31 -0.2,0.77 -0.58,1.57 -1.16,2.41 -0.58,0.84 -1.44,1.79 -2.55,2.84l-7.67 7.22 -1.06 -2.02 13.52 0 0 4.52 -18.11 0zm31.32 0.41c-1.96,0 -3.72,-0.48 -5.27,-1.46 -1.55,-0.97 -2.77,-2.38 -3.67,-4.23 -0.89,-1.85 -1.33,-4.08 -1.33,-6.71 0,-2.62 0.44,-4.86 1.33,-6.71 0.89,-1.84 2.11,-3.26 3.67,-4.23 1.55,-0.97 3.31,-1.46 5.27,-1.46 1.99,0 3.75,0.49 5.29,1.46 1.54,0.97 2.75,2.38 3.64,4.23 0.89,1.85 1.34,4.09 1.34,6.71 0,2.62 -0.45,4.86 -1.34,6.71 -0.89,1.85 -2.11,3.26 -3.64,4.23 -1.54,0.97 -3.31,1.46 -5.29,1.46zm0 -4.69c0.94,0 1.75,-0.26 2.45,-0.79 0.7,-0.52 1.24,-1.36 1.64,-2.5 0.4,-1.14 0.6,-2.61 0.6,-4.41 0,-1.8 -0.2,-3.27 -0.6,-4.41 -0.4,-1.14 -0.95,-1.97 -1.64,-2.5 -0.7,-0.52 -1.51,-0.79 -2.45,-0.79 -0.91,0 -1.72,0.26 -2.41,0.79 -0.7,0.53 -1.24,1.36 -1.64,2.5 -0.4,1.14 -0.6,2.61 -0.6,4.41 0,1.8 0.2,3.27 0.6,4.41 0.4,1.14 0.94,1.98 1.64,2.5 0.69,0.52 1.5,0.79 2.41,0.79zm17.19 4.28l0 -21.91 2.39 2.39 -7.19 0 0 -4.45 10.34 0 0 23.96 -5.54 0zm18.52 0.41c-1.66,0 -3.31,-0.22 -4.95,-0.67 -1.63,-0.44 -3.03,-1.08 -4.19,-1.9l2.19 -4.24c0.91,0.66 1.97,1.19 3.17,1.57 1.2,0.39 2.41,0.58 3.64,0.58 1.39,0 2.49,-0.27 3.28,-0.82 0.8,-0.55 1.2,-1.31 1.2,-2.3 0,-0.61 -0.16,-1.16 -0.48,-1.64 -0.32,-0.48 -0.88,-0.84 -1.7,-1.1 -0.81,-0.25 -1.94,-0.38 -3.41,-0.38l-6.13 0 1.23 -13.49 14.62 0 0 4.45 -12.63 0 2.88 -2.53 -0.86 9.62 -2.88 -2.54 5.06 0c2.38,0 4.29,0.33 5.74,0.97 1.45,0.65 2.51,1.54 3.17,2.65 0.66,1.12 0.99,2.39 0.99,3.8 0,1.41 -0.35,2.72 -1.06,3.92 -0.7,1.2 -1.8,2.17 -3.27,2.91 -1.47,0.74 -3.35,1.11 -5.63,1.11zm35.53 0c-1.85,0 -3.57,-0.3 -5.15,-0.91 -1.58,-0.6 -2.96,-1.47 -4.12,-2.58 -1.17,-1.12 -2.07,-2.43 -2.72,-3.94 -0.65,-1.51 -0.97,-3.16 -0.97,-4.97 0,-1.8 0.32,-3.46 0.97,-4.96 0.65,-1.51 1.56,-2.82 2.74,-3.94 1.18,-1.12 2.55,-1.98 4.13,-2.58 1.57,-0.6 3.3,-0.91 5.17,-0.91 2.08,0 3.96,0.36 5.63,1.08 1.68,0.72 3.09,1.78 4.23,3.17l-3.56 3.28c-0.83,-0.93 -1.74,-1.64 -2.74,-2.1 -1,-0.47 -2.1,-0.7 -3.28,-0.7 -1.12,0 -2.15,0.18 -3.08,0.55 -0.93,0.36 -1.75,0.89 -2.43,1.57 -0.69,0.68 -1.22,1.49 -1.59,2.43 -0.38,0.93 -0.57,1.97 -0.57,3.11 0,1.14 0.19,2.18 0.57,3.12 0.38,0.94 0.91,1.75 1.59,2.43 0.68,0.68 1.49,1.21 2.43,1.57 0.94,0.37 1.96,0.55 3.08,0.55 1.18,0 2.28,-0.23 3.28,-0.7 1,-0.47 1.91,-1.18 2.74,-2.14l3.56 3.28c-1.14,1.39 -2.55,2.45 -4.23,3.18 -1.68,0.73 -3.57,1.1 -5.67,1.1zm19.38 -14.72l11.53 0 0 4.31 -11.53 0 0 -4.31zm0.41 9.86l13.04 0 0 4.45 -18.56 0 0 -23.96 18.11 0 0 4.45 -12.6 0 0 15.06zm18.11 4.45l0 -23.96 10.37 0c2.15,0 4,0.35 5.55,1.04 1.55,0.7 2.75,1.7 3.59,3 0.85,1.3 1.27,2.85 1.27,4.66 0,1.78 -0.42,3.32 -1.27,4.6 -0.85,1.29 -2.04,2.28 -3.59,2.96 -1.55,0.69 -3.4,1.03 -5.55,1.03l-7.29 0 2.47 -2.43 0 9.1 -5.55 0zm15.23 0l-5.99 -8.69 5.92 0 6.06 8.69 -5.99 0zm-9.68 -8.49l-2.47 -2.6 6.99 0c1.71,0 2.99,-0.37 3.83,-1.11 0.85,-0.74 1.27,-1.76 1.27,-3.06 0,-1.32 -0.42,-2.35 -1.27,-3.08 -0.84,-0.73 -2.12,-1.09 -3.83,-1.09l-6.99 0 2.47 -2.64 0 13.59zm24.89 8.49l0 -19.44 -7.67 0 0 -4.52 20.88 0 0 4.52 -7.67 0 0 19.44 -5.54 0zm16.84 0l0 -23.96 5.55 0 0 23.96 -5.55 0zm17.02 -13.18l11.5 0 0 4.45 -11.5 0 0 -4.45zm0.41 13.18l-5.55 0 0 -23.96 18.11 0 0 4.45 -12.56 0 0 19.51zm16.98 0l0 -23.96 5.55 0 0 23.96 -5.55 0zm16.98 -14.31l11.53 0 0 4.31 -11.53 0 0 -4.31zm0.41 9.86l13.04 0 0 4.45 -18.55 0 0 -23.96 18.11 0 0 4.45 -12.6 0 0 15.06zm18.11 4.45l0 -23.96 10.89 0c2.6,0 4.89,0.5 6.88,1.49 1.99,1 3.54,2.38 4.66,4.16 1.12,1.78 1.68,3.89 1.68,6.33 0,2.42 -0.56,4.53 -1.68,6.31 -1.12,1.8 -2.67,3.18 -4.66,4.18 -1.99,0.99 -4.28,1.49 -6.88,1.49l-10.89 0zm5.55 -4.55l5.06 0c1.6,0 2.98,-0.3 4.16,-0.91 1.18,-0.6 2.09,-1.47 2.74,-2.59 0.65,-1.12 0.97,-2.43 0.97,-3.94 0,-1.53 -0.32,-2.84 -0.97,-3.95 -0.65,-1.11 -1.56,-1.96 -2.74,-2.57 -1.18,-0.6 -2.56,-0.91 -4.16,-0.91l-5.06 0 0 14.86z"/>
  </g>
 </g>
</svg>
